{"glyphs":{":":{"x_min":0,"x_max":308,"ha":308,"o":"m 53 37 q 53 60 70 76 q 86 93 109 93 q 132 93 149 76 q 165 60 165 37 q 165 14 149 -3 q 133 -19 109 -19 q 85 -19 69 -3 q 53 14 53 37 z m 93 336 q 93 359 109 375 q 125 391 149 391 q 172 391 189 375 q 205 359 205 336 q 205 312 189 296 q 173 280 149 280 q 125 280 109 296 q 93 312 93 336 z"},"$":{"x_min":0,"x_max":576,"ha":576,"o":"m 28 129 l 91 181 q 119 118 151 89 q 183 59 225 57 l 260 328 q 183 366 147 412 q 111 458 111 517 q 111 605 166 662 q 221 718 313 724 l 324 808 l 369 808 l 357 722 q 404 717 444 690 q 483 664 515 615 l 452 562 q 431 602 405 623 q 379 644 347 647 l 314 398 q 398 359 435 312 q 471 265 471 195 q 471 101 414 43 q 356 -15 259 -19 l 248 -109 l 203 -109 l 216 -17 q 151 -12 103 25 q 56 62 28 129 z m 302 306 l 270 57 q 323 64 354 101 q 384 137 384 193 q 384 231 365 258 q 345 285 302 306 z m 273 420 l 303 648 q 256 642 228 610 q 199 578 199 530 q 199 493 216 468 q 233 442 273 420 z"},"?":{"x_min":0,"x_max":498,"ha":498,"o":"m 150 37 q 150 60 166 76 q 183 93 206 93 q 229 93 246 76 q 262 60 262 37 q 262 14 246 -3 q 229 -19 206 -19 q 182 -19 166 -3 q 150 14 150 37 z m 324 323 l 394 306 q 383 237 342 201 q 300 165 232 165 q 165 165 124 203 q 83 242 83 305 q 83 359 111 396 q 140 434 219 476 q 228 481 245 490 q 359 549 359 597 q 359 627 336 645 q 314 663 276 663 q 233 663 207 639 q 181 615 173 567 l 96 578 q 113 655 158 694 q 204 733 278 733 q 353 733 397 695 q 442 657 442 594 q 442 552 415 517 q 389 482 332 450 q 310 438 272 418 q 162 361 162 307 q 162 274 182 255 q 202 235 235 235 q 271 235 296 259 q 320 283 324 323 z"},"<":{"x_min":0,"x_max":833,"ha":833,"o":"m 704 497 l 216 298 l 704 100 l 704 37 l 129 273 l 129 323 l 704 559 z"},"'":{"x_min":0,"x_max":149,"ha":149,"o":"m 103 700 l 103 430 l 46 430 l 46 700 z"},"=":{"x_min":0,"x_max":833,"ha":833,"o":"m 709 233 l 709 176 l 124 176 l 124 233 z m 709 420 l 709 363 l 124 363 l 124 420 z"},"a":{"x_min":0,"x_max":567,"ha":567,"o":"m 246 53 q 312 53 357 107 q 402 162 402 242 q 402 310 366 352 q 331 394 274 394 q 200 394 152 341 q 105 289 105 207 q 105 138 144 96 q 184 53 246 53 z m 431 447 l 508 447 l 449 0 l 371 0 l 382 67 q 350 23 310 3 q 270 -18 219 -18 q 133 -18 80 44 q 26 107 26 207 q 26 318 91 390 q 157 463 256 463 q 315 463 356 437 q 396 410 419 357 z"},"L":{"x_min":0,"x_max":434,"ha":434,"o":"m 38 0 l 132 715 l 218 715 l 134 79 l 391 79 l 381 0 z"},"3":{"x_min":0,"x_max":576,"ha":576,"o":"m 32 186 l 112 186 q 113 123 149 87 q 185 52 250 52 q 323 52 364 93 q 406 134 406 205 q 406 265 366 295 q 326 326 248 326 q 238 326 233 326 q 228 326 223 325 l 232 394 l 245 394 q 333 394 382 431 q 430 468 430 536 q 430 589 399 619 q 369 650 315 650 q 260 650 226 620 q 192 590 187 537 l 106 537 q 113 624 171 673 q 229 722 324 722 q 412 722 462 675 q 513 628 513 547 q 513 476 473 427 q 433 378 363 363 q 426 349 458 309 q 491 270 491 208 q 491 105 424 43 q 356 -19 244 -19 q 143 -19 88 31 q 32 82 32 174 z"},";":{"x_min":0,"x_max":308,"ha":308,"o":"m 94 336 q 94 359 110 375 q 126 391 150 391 q 173 391 189 375 q 205 359 205 336 q 205 312 189 296 q 173 280 150 280 q 126 280 110 296 q 94 312 94 336 z m -24 -104 l 104 135 l 176 90 l 25 -135 z"},"J":{"x_min":0,"x_max":375,"ha":375,"o":"m -34 66 l 27 119 q 41 87 61 71 q 82 54 107 54 q 175 54 199 248 q 202 267 203 277 l 261 715 l 347 715 l 285 240 q 284 232 282 217 q 265 87 239 44 q 221 14 187 -3 q 153 -19 108 -19 q 58 -19 23 2 q -12 23 -34 66 z"},"V":{"x_min":0,"x_max":560,"ha":560,"o":"m 25 715 l 115 715 l 247 179 l 520 715 l 615 715 l 224 -28 z"},"\"":{"x_min":0,"x_max":288,"ha":288,"o":"m 242 700 l 242 430 l 184 430 l 184 700 z m 103 700 l 103 430 l 46 430 l 46 700 z"},"7":{"x_min":0,"x_max":576,"ha":576,"o":"m 152 -23 l 84 17 l 429 634 l 101 634 l 111 708 l 558 708 z"},"S":{"x_min":0,"x_max":506,"ha":506,"o":"m -5 131 l 58 184 q 87 116 123 87 q 158 57 209 57 q 274 57 313 95 q 352 132 352 195 q 352 234 333 260 q 314 286 240 326 q 145 378 112 421 q 79 463 79 523 q 79 615 138 673 q 197 732 291 732 q 353 732 400 705 q 446 678 482 621 l 420 568 q 396 613 365 635 q 334 657 293 657 q 236 657 201 623 q 166 589 166 536 q 166 465 275 407 q 294 396 304 391 q 381 348 409 305 q 438 262 438 197 q 438 98 377 39 q 316 -19 211 -19 q 134 -19 80 19 q 25 57 -5 131 z"},"}":{"x_min":0,"x_max":500,"ha":500,"o":"m 275 543 l 275 424 q 275 350 302 319 q 329 289 395 289 q 398 289 406 290 q 413 290 417 290 l 417 228 q 413 228 406 229 q 398 229 395 229 q 329 229 302 199 q 275 168 275 94 l 275 -24 q 275 -99 264 -130 q 253 -161 227 -178 q 208 -191 179 -197 q 151 -202 101 -202 l 81 -202 l 81 -141 q 85 -141 92 -142 q 100 -142 103 -142 q 162 -142 183 -119 q 204 -96 204 -22 l 204 95 q 204 176 225 210 q 247 244 301 259 q 247 274 225 308 q 204 342 204 423 l 204 541 q 204 614 183 637 q 161 660 100 660 l 81 660 l 81 721 l 98 721 q 147 721 177 715 q 207 709 227 696 q 253 679 264 648 q 275 617 275 543 z"},"Z":{"x_min":0,"x_max":558,"ha":558,"o":"m -22 0 l -22 18 l 425 638 l 71 638 l 81 715 l 560 715 l 560 697 l 114 75 l 499 75 l 489 0 z"},"x":{"x_min":0,"x_max":453,"ha":453,"o":"m -17 0 l 168 230 l 47 447 l 137 447 l 221 281 l 346 447 l 440 447 l 255 222 l 378 0 l 288 0 l 206 170 l 77 0 z"},")":{"x_min":0,"x_max":318,"ha":318,"o":"m 18 -212 l -30 -176 q 60 -71 107 68 q 155 207 155 364 q 155 465 136 552 q 117 639 78 716 l 128 742 q 174 647 197 552 q 220 457 220 362 q 220 190 171 52 q 122 -87 18 -212 z"},"&":{"x_min":0,"x_max":625,"ha":625,"o":"m 282 451 l 309 471 q 352 503 368 525 q 384 546 384 570 q 384 599 365 617 q 347 635 317 635 q 282 635 260 613 q 239 592 239 557 q 239 540 244 522 q 249 505 259 489 z m 382 152 l 254 351 l 209 320 q 158 285 132 248 q 107 211 107 170 q 107 122 139 90 q 171 57 218 57 q 247 57 276 70 q 306 83 334 109 z m 489 1 l 425 90 l 385 55 q 345 20 301 2 q 257 -15 209 -15 q 127 -15 77 36 q 26 87 26 169 q 26 235 65 289 q 105 343 189 392 l 218 409 q 190 450 177 489 q 163 527 163 561 q 163 624 207 666 q 251 707 319 707 q 385 707 425 669 q 465 631 465 568 q 465 522 435 484 q 404 445 317 389 l 437 204 q 461 226 483 253 q 506 280 526 313 l 577 252 q 549 217 526 190 q 502 164 478 141 l 582 1 z"},"_":{"x_min":0,"x_max":500,"ha":500,"o":"m 500 -178 l 500 -236 l 0 -236 l 0 -178 z"},"v":{"x_min":0,"x_max":447,"ha":447,"o":"m 9 447 l 92 447 l 188 136 l 365 447 l 454 447 l 167 -27 z"},"O":{"x_min":0,"x_max":856,"ha":856,"o":"m 721 383 q 721 504 646 580 q 570 655 447 655 q 385 655 330 632 q 275 610 234 568 q 187 520 161 458 q 136 397 136 330 q 136 208 211 134 q 285 59 407 59 q 470 59 526 82 q 583 104 626 147 q 671 192 696 254 q 721 316 721 383 z m 451 731 q 613 731 710 636 q 807 541 807 383 q 807 298 775 222 q 744 147 685 91 q 630 38 556 10 q 481 -19 398 -19 q 243 -19 147 77 q 51 174 51 329 q 51 416 82 492 q 113 569 170 624 q 224 676 297 703 q 369 731 451 731 z"},"(":{"x_min":0,"x_max":318,"ha":318,"o":"m 277 742 l 325 706 q 235 601 188 462 q 140 323 140 166 q 140 65 159 -21 q 178 -108 217 -185 l 167 -212 q 121 -117 98 -22 q 75 73 75 168 q 75 340 124 479 q 173 617 277 742 z"},"C":{"x_min":0,"x_max":671,"ha":671,"o":"m 636 566 q 586 611 536 633 q 485 655 431 655 q 372 655 320 633 q 269 612 230 571 q 186 524 162 464 q 139 404 139 337 q 139 208 210 134 q 281 59 403 59 q 450 59 497 75 q 544 91 597 126 l 578 26 q 535 3 488 -8 q 441 -19 389 -19 q 238 -19 144 78 q 50 176 50 331 q 50 417 80 493 q 111 569 168 626 q 219 677 286 704 q 353 731 430 731 q 497 731 553 712 q 609 692 659 652 z"},"W":{"x_min":0,"x_max":880,"ha":880,"o":"m 200 -28 l 19 715 l 106 715 l 224 196 l 480 743 l 611 196 l 839 715 l 927 715 l 587 -28 l 454 505 z"},"A":{"x_min":0,"x_max":627,"ha":627,"o":"m -47 0 l 374 743 l 603 0 l 508 0 l 460 180 l 148 180 l 51 0 z m 186 254 l 441 254 l 355 539 z"},"f":{"x_min":0,"x_max":310,"ha":310,"o":"m 62 0 l 112 382 l 30 382 l 38 447 l 121 447 l 138 578 q 152 687 182 726 q 212 766 275 766 q 294 766 311 762 q 329 758 346 749 l 333 681 q 312 690 301 694 q 290 697 281 697 q 253 697 240 676 q 227 656 218 586 l 199 447 l 298 447 l 289 382 l 191 382 l 141 0 z"},"Q":{"x_min":0,"x_max":856,"ha":856,"o":"m 666 -76 l 582 21 q 540 2 495 -8 q 450 -17 400 -17 q 244 -17 147 78 q 51 174 51 329 q 51 416 82 491 q 112 566 170 621 q 226 674 300 703 q 374 731 456 731 q 616 731 711 635 q 805 540 805 377 q 805 277 763 194 q 721 111 644 60 l 753 -56 z m 412 212 l 500 233 l 596 120 q 656 164 689 234 q 721 305 721 392 q 721 507 645 581 q 568 655 447 655 q 385 655 329 632 q 274 610 232 567 q 186 520 160 456 q 134 393 134 326 q 134 210 212 134 q 290 57 408 57 q 438 57 468 63 q 498 70 527 83 z"},"w":{"x_min":0,"x_max":712,"ha":712,"o":"m 13 447 l 95 447 l 182 141 l 363 477 l 463 141 l 628 447 l 710 447 l 443 -27 l 344 300 l 166 -27 z"},"-":{"x_min":0,"x_max":329,"ha":329,"o":"m 37 260 l 267 260 l 257 184 l 28 184 z"},"E":{"x_min":0,"x_max":515,"ha":515,"o":"m 431 79 l 420 0 l 38 0 l 132 715 l 500 715 l 490 637 l 206 637 l 178 424 l 462 424 l 452 347 l 168 347 l 132 79 z"},"s":{"x_min":0,"x_max":410,"ha":410,"o":"m -2 65 l 48 124 q 72 84 103 65 q 134 45 172 45 q 214 45 239 64 q 263 83 263 116 q 263 153 194 185 q 176 193 166 198 q 102 229 81 255 q 60 282 60 322 q 60 383 105 423 q 151 463 222 463 q 267 463 305 446 q 343 430 374 397 l 327 341 q 307 368 279 382 q 251 396 217 396 q 183 396 160 377 q 136 357 136 331 q 136 295 219 259 l 227 256 q 293 228 315 200 q 338 172 338 127 q 338 59 294 20 q 250 -19 174 -19 q 117 -19 74 1 q 31 22 -2 65 z"},">":{"x_min":0,"x_max":833,"ha":833,"o":"m 704 323 l 704 273 l 129 37 l 129 100 l 617 298 l 129 497 l 129 559 z"},"l":{"x_min":0,"x_max":241,"ha":241,"o":"m 113 0 l 34 0 l 134 757 l 212 757 z"},"8":{"x_min":0,"x_max":576,"ha":576,"o":"m 258 54 q 328 54 372 100 q 416 146 416 220 q 416 282 381 317 q 346 352 284 352 q 213 352 169 306 q 125 260 125 187 q 125 124 160 89 q 195 54 258 54 z m 295 421 q 357 421 393 456 q 428 491 428 553 q 428 597 395 625 q 362 652 309 652 q 251 652 216 619 q 181 587 181 533 q 181 482 212 451 q 243 421 295 421 z m 203 390 q 154 413 129 449 q 104 485 104 532 q 104 615 162 669 q 219 722 311 722 q 403 722 454 677 q 506 632 506 552 q 506 486 469 441 q 432 397 369 387 q 430 372 464 325 q 499 279 499 212 q 499 112 430 46 q 361 -19 254 -19 q 155 -19 98 36 q 41 90 41 185 q 41 263 83 316 q 125 369 203 390 z"},"\\":{"x_min":0,"x_max":447,"ha":447,"o":"m 300 -93 l 79 731 l 146 731 l 368 -93 z"},"e":{"x_min":0,"x_max":508,"ha":508,"o":"m 456 210 l 98 210 l 98 202 q 98 130 135 89 q 171 48 235 48 q 274 48 308 67 q 341 86 372 126 l 426 82 q 387 31 340 6 q 293 -19 238 -19 q 138 -19 79 41 q 20 102 20 204 q 20 316 88 389 q 157 463 260 463 q 354 463 405 406 q 457 349 457 245 q 457 231 457 224 q 457 216 456 210 z m 382 274 q 381 334 349 367 q 317 400 259 400 q 201 400 159 366 q 118 332 105 274 z"},"b":{"x_min":0,"x_max":567,"ha":567,"o":"m 287 389 q 222 389 176 335 q 131 281 131 201 q 131 133 167 91 q 202 49 259 49 q 333 49 381 102 q 428 154 428 236 q 428 305 389 347 q 350 389 287 389 z m 104 0 l 25 0 l 125 757 l 203 757 l 152 377 q 183 419 223 441 q 264 462 313 462 q 400 462 454 399 q 507 337 507 233 q 507 189 492 146 q 477 102 449 65 q 419 25 374 3 q 329 -19 278 -19 q 219 -19 178 8 q 138 34 115 87 z"},"%":{"x_min":0,"x_max":719,"ha":719,"o":"m 461 114 q 461 68 476 47 q 491 25 522 25 q 567 25 594 77 q 621 130 621 220 q 621 265 606 286 q 591 307 560 307 q 516 307 489 254 q 461 201 461 114 z m 559 353 q 621 353 654 314 q 686 275 686 199 q 686 104 641 41 q 595 -22 531 -22 q 464 -22 431 16 q 398 54 398 131 q 398 229 444 291 q 489 353 559 353 z m 101 485 q 101 439 115 417 q 130 396 161 396 q 206 396 233 449 q 260 501 260 592 q 260 637 245 657 q 231 678 200 678 q 156 678 129 625 q 101 571 101 485 z m 198 724 q 261 724 293 685 q 325 646 325 571 q 325 477 280 413 q 234 350 170 350 q 103 350 70 388 q 37 425 37 502 q 37 600 83 662 q 128 724 198 724 z m 132 -19 l 534 722 l 583 722 l 181 -19 z"},"m":{"x_min":0,"x_max":786,"ha":786,"o":"m 309 0 l 345 274 q 347 285 347 295 q 348 305 348 315 q 348 355 327 376 q 307 397 266 397 q 213 397 182 354 q 150 312 139 226 l 109 0 l 32 0 l 92 447 l 166 447 l 156 378 q 188 421 225 442 q 263 463 307 463 q 352 463 383 441 q 415 418 425 379 q 458 421 498 442 q 538 463 583 463 q 640 463 674 428 q 707 393 707 332 q 707 318 704 287 q 703 284 703 282 l 666 0 l 588 0 l 624 274 q 625 284 626 294 q 627 305 627 315 q 627 355 606 376 q 585 397 545 397 q 491 397 460 356 q 430 315 418 226 l 388 0 z"},"#":{"x_min":0,"x_max":769,"ha":769,"o":"m 475 421 l 346 421 l 300 288 l 428 288 z m 450 711 l 369 481 l 496 481 l 578 711 l 648 711 l 568 481 l 718 481 l 697 421 l 545 421 l 499 288 l 660 288 l 639 228 l 477 228 l 396 -1 l 325 -1 l 407 228 l 278 228 l 196 -1 l 126 -1 l 207 228 l 51 228 l 72 288 l 228 288 l 275 421 l 108 421 l 129 481 l 297 481 l 379 711 z"},",":{"x_min":0,"x_max":288,"ha":288,"o":"m -24 -104 l 104 135 l 176 90 l 25 -135 z"},"n":{"x_min":0,"x_max":542,"ha":542,"o":"m 32 0 l 91 447 l 165 447 l 155 374 q 192 419 233 441 q 274 463 323 463 q 387 463 425 428 q 462 393 462 332 q 462 321 461 309 q 460 296 458 282 l 421 0 l 343 0 l 378 274 q 378 277 379 283 q 382 307 382 315 q 382 355 357 376 q 333 397 286 397 q 225 397 187 353 q 149 310 138 226 l 108 0 z"},"h":{"x_min":0,"x_max":542,"ha":542,"o":"m 32 0 l 132 757 l 209 757 l 156 374 q 190 418 232 441 q 273 463 323 463 q 387 463 425 428 q 462 393 462 332 q 462 321 461 309 q 460 296 458 282 l 421 0 l 343 0 l 378 274 q 378 277 379 283 q 382 307 382 315 q 382 355 357 376 q 333 397 286 397 q 225 397 187 353 q 149 310 138 226 l 108 0 z"},"z":{"x_min":0,"x_max":431,"ha":431,"o":"m -12 0 l 277 382 l 47 382 l 56 447 l 407 447 l 127 69 l 358 69 l 349 0 z"},"B":{"x_min":0,"x_max":549,"ha":549,"o":"m 175 406 l 232 406 q 283 406 308 410 q 333 414 353 422 q 384 437 402 465 q 419 494 419 532 q 419 562 407 584 q 395 607 372 621 q 356 630 335 634 q 314 638 270 638 l 242 638 l 206 638 z m 132 76 l 182 76 q 255 76 286 80 q 316 84 338 94 q 372 109 392 142 q 411 174 411 216 q 411 249 398 273 q 384 298 359 313 q 340 324 316 328 q 291 333 240 333 l 213 333 l 166 333 z m 38 0 l 132 715 l 259 715 q 344 715 382 705 q 421 696 448 673 q 475 649 489 617 q 503 584 503 544 q 503 476 469 431 q 434 386 372 373 q 433 356 464 316 q 496 275 496 216 q 496 159 474 114 q 452 69 410 41 q 378 19 330 9 q 282 0 169 0 z"},"K":{"x_min":0,"x_max":606,"ha":606,"o":"m 38 0 l 132 715 l 218 715 l 176 394 l 515 715 l 628 715 l 272 389 l 587 0 l 475 0 l 174 381 l 124 0 z"},"R":{"x_min":0,"x_max":547,"ha":547,"o":"m 174 396 l 232 396 q 286 396 312 400 q 339 404 359 413 q 391 427 409 458 q 427 488 427 528 q 427 588 389 613 q 351 638 244 638 l 206 638 z m 38 0 l 132 715 l 247 715 q 341 715 380 705 q 418 695 448 672 q 480 646 497 610 q 514 573 514 528 q 514 438 455 385 q 396 332 294 331 l 514 0 l 411 0 l 201 330 l 165 330 l 122 0 z"},"T":{"x_min":0,"x_max":491,"ha":491,"o":"m 152 0 l 235 637 l 55 637 l 65 715 l 515 715 l 505 637 l 323 637 l 239 0 z"},"P":{"x_min":0,"x_max":528,"ha":528,"o":"m 174 389 l 232 389 q 287 389 313 393 q 340 397 359 406 q 392 421 409 452 q 427 483 427 525 q 427 557 415 581 q 403 604 379 619 q 363 629 340 634 q 318 638 270 638 l 244 638 l 208 638 z m 38 0 l 132 715 l 247 715 q 343 715 382 705 q 421 695 450 672 q 481 647 498 610 q 514 573 514 528 q 514 474 495 431 q 475 388 437 359 q 406 335 364 324 q 321 314 228 314 l 195 314 l 164 314 l 123 0 z"},"|":{"x_min":0,"x_max":500,"ha":500,"o":"m 281 764 l 281 -236 l 219 -236 l 219 764 z"},"t":{"x_min":0,"x_max":287,"ha":287,"o":"m 51 0 l 101 382 l 18 382 l 27 447 l 110 447 l 133 627 l 212 627 l 188 447 l 286 447 l 278 382 l 179 382 l 129 0 z"},"M":{"x_min":0,"x_max":866,"ha":866,"o":"m -8 0 l 213 743 l 416 155 l 759 743 l 793 0 l 708 0 l 697 495 l 391 -28 l 216 496 l 81 0 z"},"g":{"x_min":0,"x_max":567,"ha":567,"o":"m 246 59 q 311 59 356 113 q 402 167 402 246 q 402 313 366 355 q 331 396 274 396 q 200 396 152 344 q 105 292 105 212 q 105 144 144 102 q 184 59 246 59 z m 431 447 l 508 447 l 463 92 q 461 81 459 61 q 443 -72 414 -119 q 384 -169 337 -192 q 291 -215 216 -215 q 126 -215 73 -166 q 19 -116 17 -33 l 94 -23 q 96 -84 132 -118 q 168 -151 234 -151 q 293 -151 329 -110 q 366 -69 374 6 l 382 74 q 350 31 310 10 q 270 -11 219 -11 q 135 -11 80 50 q 26 111 26 207 q 26 317 92 390 q 157 463 256 463 q 315 463 356 437 q 397 411 419 359 z"},"j":{"x_min":0,"x_max":241,"ha":241,"o":"m 99 658 q 99 680 115 695 q 131 711 153 711 q 175 711 191 696 q 206 680 206 658 q 206 635 191 620 q 175 604 153 604 q 131 604 115 620 q 99 636 99 658 z m 83 -218 l 5 -218 l 94 447 l 172 447 z"},"i":{"x_min":0,"x_max":241,"ha":241,"o":"m 99 658 q 99 680 115 695 q 131 711 153 711 q 175 711 191 696 q 206 680 206 658 q 206 635 191 620 q 175 604 153 604 q 131 604 115 620 q 99 636 99 658 z m 35 0 l 94 447 l 172 447 l 113 0 z"},"y":{"x_min":0,"x_max":465,"ha":465,"o":"m -6 -218 l 150 49 l 28 447 l 111 447 l 203 128 l 377 447 l 466 447 l 81 -218 z"},"@":{"x_min":0,"x_max":1000,"ha":1000,"o":"m 631 412 l 659 471 l 713 471 l 644 194 q 641 182 640 172 q 638 163 638 155 q 638 133 652 122 q 665 111 692 111 q 714 111 741 123 q 768 134 791 154 q 834 191 859 250 q 884 309 884 374 q 884 504 788 583 q 693 662 535 662 q 453 662 383 637 q 312 611 256 562 q 188 502 153 424 q 118 346 118 251 q 118 167 148 103 q 177 39 239 -10 q 288 -49 356 -71 q 424 -92 500 -92 q 584 -92 663 -68 q 743 -44 808 0 l 830 -32 q 758 -85 677 -113 q 596 -140 508 -140 q 415 -140 338 -117 q 261 -95 203 -50 q 128 7 92 83 q 55 159 55 255 q 55 334 80 406 q 104 477 153 537 q 224 623 323 667 q 423 712 545 712 q 625 712 697 691 q 768 669 818 630 q 881 582 913 518 q 946 454 946 380 q 946 297 915 229 q 885 161 826 114 q 792 87 754 73 q 715 59 674 59 q 625 59 601 78 q 577 97 577 135 q 577 136 578 140 q 578 144 578 146 q 553 104 516 81 q 479 59 433 59 q 358 59 319 101 q 280 142 280 221 q 280 333 347 411 q 414 489 509 489 q 553 489 584 469 q 614 450 631 412 z m 587 231 l 616 349 q 608 393 581 417 q 554 442 515 442 q 444 442 396 378 q 348 313 348 218 q 348 164 373 135 q 398 106 444 106 q 494 106 533 140 q 573 175 587 231 z"},".":{"x_min":0,"x_max":288,"ha":288,"o":"m 46 46 q 46 69 62 86 q 79 102 102 102 q 125 102 142 86 q 158 69 158 46 q 158 22 142 7 q 126 -9 102 -9 q 78 -9 62 7 q 46 22 46 46 z"},"p":{"x_min":0,"x_max":567,"ha":567,"o":"m 288 390 q 222 390 177 336 q 132 282 132 202 q 132 135 167 93 q 203 52 260 52 q 334 52 382 104 q 429 156 429 237 q 429 305 390 348 q 351 390 288 390 z m -2 -218 l 85 447 l 163 447 l 153 377 q 186 421 225 442 q 265 463 315 463 q 399 463 454 400 q 508 337 508 239 q 508 130 443 56 q 377 -17 280 -17 q 220 -17 180 9 q 140 35 118 88 l 78 -218 z"},"X":{"x_min":0,"x_max":488,"ha":488,"o":"m -53 0 l 205 361 l 18 715 l 114 715 l 257 437 l 454 715 l 555 715 l 295 359 l 483 0 l 391 0 l 242 283 l 39 0 z"},"*":{"x_min":0,"x_max":428,"ha":428,"o":"m 98 461 l 75 515 l 206 555 l 89 625 l 123 671 l 224 577 l 226 715 l 284 708 l 254 573 l 373 641 l 395 587 l 264 547 l 381 476 l 347 430 l 246 525 l 246 386 l 185 394 l 217 528 z"},"Y":{"x_min":0,"x_max":521,"ha":521,"o":"m 165 0 l 206 312 l 14 715 l 106 715 l 254 391 l 459 715 l 556 715 l 292 311 l 251 0 z"},"c":{"x_min":0,"x_max":463,"ha":463,"o":"m 426 331 q 391 366 355 383 q 318 399 276 399 q 198 399 148 344 q 99 290 99 202 q 99 132 142 89 q 185 46 255 46 q 289 46 322 60 q 354 73 394 105 l 382 21 q 355 1 319 -9 q 283 -19 240 -19 q 142 -19 81 42 q 20 104 20 203 q 20 317 93 390 q 165 463 281 463 q 323 463 361 452 q 399 440 437 417 z"},"!":{"x_min":0,"x_max":308,"ha":308,"o":"m 61 37 q 61 60 77 76 q 94 93 117 93 q 140 93 156 77 q 172 61 172 37 q 172 13 156 -3 q 141 -19 117 -19 q 93 -19 77 -3 q 61 14 61 37 z m 89 173 l 163 731 l 245 731 l 170 173 z"},"/":{"x_min":0,"x_max":447,"ha":447,"o":"m 0 -93 l 380 731 l 447 731 l 67 -93 z"},"[":{"x_min":0,"x_max":318,"ha":318,"o":"m 321 669 l 227 669 l 121 -139 l 225 -139 l 217 -201 l 43 -201 l 166 731 l 329 731 z"},"6":{"x_min":0,"x_max":576,"ha":576,"o":"m 194 392 q 225 409 254 417 q 284 426 314 426 q 400 426 451 372 q 503 319 503 230 q 503 122 432 51 q 360 -21 253 -21 q 156 -21 99 37 q 42 94 42 192 q 42 264 79 339 q 116 414 200 508 l 397 730 l 455 681 z m 289 360 q 216 360 168 312 q 121 264 121 190 q 121 126 157 89 q 192 52 253 52 q 325 52 373 102 q 420 151 420 228 q 420 287 384 323 q 348 360 289 360 z"},"r":{"x_min":0,"x_max":338,"ha":338,"o":"m 312 374 q 299 380 286 384 q 273 387 260 387 q 208 387 178 344 q 148 301 136 211 l 108 0 l 32 0 l 91 447 l 168 447 l 156 376 q 187 421 218 442 q 250 463 287 463 q 298 463 309 460 q 321 458 332 453 z"},"2":{"x_min":0,"x_max":576,"ha":576,"o":"m 481 0 l -1 0 l 166 165 q 244 242 283 282 q 323 322 339 339 q 403 408 423 448 q 443 489 443 533 q 443 585 407 617 q 372 650 314 650 q 242 650 203 611 q 164 571 159 493 l 74 493 q 79 602 142 662 q 206 722 314 722 q 414 722 471 672 q 529 621 529 534 q 529 469 495 408 q 460 348 362 251 l 184 76 l 493 76 z"},"{":{"x_min":0,"x_max":500,"ha":500,"o":"m 419 659 q 415 659 408 660 q 400 660 397 660 q 338 660 317 637 q 296 614 296 541 l 296 423 q 296 342 275 308 q 253 274 199 259 q 253 244 275 210 q 296 176 296 95 l 296 -23 q 296 -96 317 -118 q 338 -141 400 -141 l 419 -141 l 419 -202 l 402 -202 q 354 -202 324 -196 q 294 -190 274 -177 q 247 -159 236 -128 q 225 -97 225 -24 l 225 95 q 225 169 198 199 q 171 229 106 229 q 103 229 95 229 q 88 228 84 228 l 84 290 q 88 290 95 290 q 103 289 106 289 q 171 289 198 319 q 225 349 225 424 l 225 543 q 225 618 236 648 q 247 679 274 696 q 294 709 324 715 q 353 721 402 721 l 419 721 z"},"9":{"x_min":0,"x_max":576,"ha":576,"o":"m 376 309 q 345 292 316 283 q 286 275 256 275 q 170 275 118 329 q 67 382 67 471 q 67 579 138 650 q 209 722 317 722 q 414 722 471 665 q 528 607 528 509 q 528 437 491 363 q 454 289 370 194 l 174 -28 l 116 20 z m 281 341 q 354 341 402 389 q 449 438 449 512 q 449 576 414 612 q 378 649 317 649 q 245 649 198 599 q 150 549 150 473 q 150 414 186 377 q 222 341 281 341 z"}," ":{"x_min":0,"x_max":288,"ha":288,"o":""},"I":{"x_min":0,"x_max":264,"ha":264,"o":"m 41 0 l 135 715 l 224 715 l 130 0 z"},"H":{"x_min":0,"x_max":708,"ha":708,"o":"m 38 0 l 132 715 l 218 715 l 181 432 l 547 432 l 584 715 l 671 715 l 577 0 l 490 0 l 536 354 l 171 354 l 124 0 z"},"4":{"x_min":0,"x_max":576,"ha":576,"o":"m 300 0 l 321 161 l -5 161 l -5 175 l 434 722 l 475 722 l 411 231 l 497 231 l 485 161 l 402 161 l 380 0 z m 330 231 l 380 558 l 124 231 z"},"~":{"x_min":0,"x_max":833,"ha":833,"o":"m 747 306 q 698 271 651 253 q 604 236 558 236 q 537 236 514 240 q 491 245 465 253 q 450 258 422 268 q 324 303 275 303 q 234 303 190 285 q 146 267 87 225 l 87 290 q 138 326 186 343 q 233 361 276 361 q 303 361 333 355 q 362 349 418 329 q 425 327 439 321 q 517 293 559 293 q 600 293 644 311 q 688 329 747 370 z"},"D":{"x_min":0,"x_max":698,"ha":698,"o":"m 134 78 l 180 78 q 290 78 333 84 q 376 90 407 105 q 480 140 521 211 q 561 282 561 378 q 561 458 529 519 q 497 580 438 611 q 411 625 371 632 q 332 638 258 638 l 208 638 z m 38 0 l 132 715 l 228 715 q 349 715 397 708 q 446 700 480 683 q 560 643 604 564 q 648 485 648 383 q 648 287 611 204 q 574 122 508 72 q 457 33 390 17 q 324 0 173 0 z"},"^":{"x_min":0,"x_max":1000,"ha":1000,"o":"m 539 712 l 793 440 l 716 440 l 500 654 l 284 440 l 206 440 l 460 712 z"},"0":{"x_min":0,"x_max":576,"ha":576,"o":"m 537 439 q 537 339 514 250 q 492 162 450 98 q 412 40 361 10 q 310 -19 249 -19 q 149 -19 94 54 q 40 127 40 263 q 40 365 62 453 q 84 541 126 605 q 163 663 214 693 q 264 722 326 722 q 428 722 482 649 q 537 575 537 439 z m 327 650 q 287 650 253 628 q 220 606 195 564 q 161 506 142 423 q 122 340 122 253 q 122 154 155 104 q 188 53 251 53 q 339 53 396 163 q 453 272 453 447 q 453 552 422 601 q 392 650 327 650 z"},"F":{"x_min":0,"x_max":498,"ha":498,"o":"m 37 0 l 131 715 l 500 715 l 489 637 l 207 637 l 179 424 l 461 424 l 451 347 l 169 347 l 123 0 z"},"`":{"x_min":0,"x_max":500,"ha":500,"o":"m 336 517 l 283 517 l 136 687 l 233 687 z"},"k":{"x_min":0,"x_max":472,"ha":472,"o":"m 143 253 l 370 447 l 478 447 l 233 243 l 425 0 l 323 0 l 141 237 l 109 0 l 32 0 l 132 757 l 209 757 z"},"u":{"x_min":0,"x_max":512,"ha":512,"o":"m 87 447 l 165 447 l 139 249 q 138 241 136 227 q 126 152 126 128 q 126 92 151 72 q 176 52 221 52 q 281 52 309 84 q 336 116 350 225 l 379 447 l 456 447 l 426 220 q 425 214 424 204 q 408 82 365 36 q 340 9 302 -5 q 264 -19 217 -19 q 140 -19 94 19 q 48 57 48 119 q 48 143 59 232 l 60 239 z"},"]":{"x_min":0,"x_max":318,"ha":318,"o":"m -27 -139 l 67 -139 l 174 669 l 69 669 l 78 731 l 251 731 l 128 -201 l -35 -201 z"},"U":{"x_min":0,"x_max":692,"ha":692,"o":"m 124 715 l 211 715 l 154 280 q 151 256 149 241 q 148 225 148 216 q 148 139 188 99 q 229 58 305 58 q 359 58 401 77 q 442 95 469 132 q 505 181 522 313 q 524 325 525 332 l 576 715 l 662 715 l 609 313 l 609 312 q 587 144 536 80 q 497 31 436 5 q 375 -21 299 -21 q 190 -21 125 34 q 61 89 61 182 q 61 218 66 268 q 70 317 80 388 z"},"o":{"x_min":0,"x_max":551,"ha":551,"o":"m 268 400 q 194 400 146 345 q 98 291 98 207 q 98 133 140 88 q 182 43 250 43 q 323 43 371 97 q 419 151 419 235 q 419 307 377 354 q 334 400 268 400 z m 20 205 q 20 315 92 389 q 165 463 272 463 q 369 463 433 402 q 496 340 496 249 q 496 130 426 55 q 356 -19 245 -19 q 143 -19 82 42 q 20 104 20 205 z"},"N":{"x_min":0,"x_max":752,"ha":752,"o":"m 37 1 l 133 743 l 559 184 l 630 716 l 715 716 l 617 -28 l 193 526 l 122 1 z"},"+":{"x_min":0,"x_max":833,"ha":833,"o":"m 446 596 l 446 327 l 709 327 l 709 270 l 446 270 l 446 0 l 388 0 l 388 270 l 124 270 l 124 327 l 388 327 l 388 596 z"},"G":{"x_min":0,"x_max":806,"ha":806,"o":"m 454 350 l 756 350 l 756 345 q 756 177 660 79 q 563 -19 398 -19 q 239 -19 145 76 q 50 171 50 329 q 50 416 81 492 q 113 569 171 625 q 226 678 296 705 q 365 732 445 732 q 546 732 621 697 q 696 662 755 587 l 691 530 q 641 594 581 624 q 521 655 446 655 q 312 655 225 562 q 137 468 137 325 q 137 204 212 130 q 287 56 409 56 q 511 56 584 118 q 658 180 668 276 l 444 276 z"},"q":{"x_min":0,"x_max":567,"ha":567,"o":"m 246 53 q 312 53 357 107 q 402 162 402 242 q 402 310 366 352 q 331 394 274 394 q 200 394 152 341 q 105 289 105 207 q 105 138 144 96 q 184 53 246 53 z m 431 447 l 508 447 l 421 -218 l 342 -218 l 382 67 q 350 23 310 2 q 270 -19 219 -19 q 134 -19 80 43 q 26 105 26 203 q 26 316 91 390 q 156 464 255 464 q 315 464 356 438 q 396 411 419 358 z"},"d":{"x_min":0,"x_max":567,"ha":567,"o":"m 244 53 q 309 53 354 107 q 400 162 400 242 q 400 310 365 352 q 329 394 272 394 q 198 394 151 342 q 104 289 104 207 q 104 138 143 96 q 182 53 244 53 z m 469 757 l 547 757 l 447 0 l 369 0 l 380 67 q 348 23 308 3 q 268 -18 217 -18 q 131 -18 78 44 q 24 107 24 207 q 24 318 89 390 q 155 463 254 463 q 313 463 354 437 q 395 410 417 357 z"},"1":{"x_min":0,"x_max":576,"ha":576,"o":"m 225 0 l 308 631 l 171 631 l 202 708 l 405 708 l 311 0 z"},"5":{"x_min":0,"x_max":576,"ha":576,"o":"m 15 77 l 71 132 q 108 93 145 74 q 181 56 222 56 q 305 56 355 109 q 405 161 405 248 q 405 319 361 361 q 317 403 241 403 q 203 403 168 394 q 132 385 97 366 l 81 376 l 202 708 l 506 708 l 495 631 l 253 631 l 189 454 q 215 460 237 463 q 259 466 278 466 q 374 466 432 406 q 490 346 490 246 q 490 130 417 55 q 343 -19 228 -19 q 165 -19 112 5 q 59 29 15 77 z"}}}
